# xmcd CD database file
#
# Track frame offsets:
#	150
#	60564
#	193727
#
# Disc length: 3842 seconds
#
# Revision: 2
# Processed by: cddbd v1.5PL3 Copyright (c) Steve Scherf et al.
# Submitted via: CDex 1.51
#
DISCID=230f0003
DTITLE=Johnny Joyland - PPP: Best Of 1990-1999
DYEAR=2002
DGENRE=Jazz
TTITLE0=Spring Angel Iho
TTITLE1=Port
TTITLE2=Summer Sister Eyes
EXTD=YEAR: 2002
EXTT0=
EXTT1=
EXTT2=
PLAYORDER=
